Coordinates
version=1
nRows=12
nColumns=33
inDegrees=yes

Units are S.I. units (second, meters, Newtons, ...)
Angles are in degrees.

endheader
time	ground_thorax_rot_x	ground_thorax_rot_y	ground_thorax_rot_z	ground_thorax_tx	ground_thorax_ty	ground_thorax_tz	clav_prot_r	clav_elev_r	scapula_abduction_r	scapula_elevation_r	scapula_upward_rot_r	scapula_winging_r	shoulder_elv_r	plane_of_elev_r	axial_rot_r	elbow_flexion_r	pro_sup_r	wrist_flex_r	wrist_dev_r	clav_prot_l	clav_elev_l	scapula_abduction_l	scapula_elevation_l	scapula_upward_rot_l	scapula_winging_l	shoulder_elv_l	plane_of_elev_l	axial_rot_l	elbow_flexion_l	pro_sup_l	wrist_flex_l	wrist_dev_l	
3.3100	4.256334	-2.494247	11.460992	-0.112138	1.045472	0.004132	10.336227	-12.978436	20.731149	-7.746271	5.376529	-3.754846	55.416951	14.202804	-20.690629	133.791493	46.739211	21.777612	-9.666993	10.439131	-9.844693	-15.928139	0.060047	-9.057701	2.223910	53.318544	47.878834	-5.092838	118.657368	31.978562	-6.613590	-14.374480	
3.3200	4.258532	-2.394390	11.478782	-0.112085	1.045582	0.004170	10.323474	-12.945134	20.740797	-7.738190	5.433618	-3.774858	55.463518	14.161725	-20.740067	133.841936	46.774266	21.990364	-9.808628	10.472272	-9.871766	-15.966328	0.059252	-9.114183	2.227945	53.340344	47.935196	-5.243804	118.663994	32.027107	-6.604908	-14.394934	
3.3300	4.256254	-2.299452	11.479451	-0.112036	1.045690	0.004211	10.308828	-12.908046	20.768899	-7.741704	5.530269	-3.803837	55.529739	14.146399	-20.782480	133.841286	46.814745	22.202858	-9.999864	10.497254	-9.875187	-15.997874	0.047285	-9.147275	2.238614	53.356908	48.012331	-5.382498	118.661891	32.078036	-6.606516	-14.417731	
3.3400	4.246739	-2.204634	11.468568	-0.111991	1.045796	0.004253	10.290767	-12.863304	20.814410	-7.754382	5.669296	-3.843385	55.616780	14.156525	-20.815692	133.796554	46.869841	22.423194	-10.280362	10.515637	-9.854679	-16.023902	0.021787	-9.161658	2.256259	53.369783	48.107909	-5.525049	118.651138	32.135896	-6.619583	-14.445629	
3.3500	4.220724	-2.111413	11.442216	-0.111956	1.045906	0.004263	10.273594	-12.801870	20.889918	-7.771568	5.860397	-3.902797	55.707023	14.174611	-20.854870	133.688891	46.951953	22.741896	-10.751136	10.527908	-9.797992	-16.044680	-0.028674	-9.157862	2.285029	53.359564	48.243042	-5.680673	118.618946	32.218324	-6.658359	-14.484120	
3.3600	4.178732	-2.015024	11.418864	-0.111945	1.046032	0.004250	10.250777	-12.725549	20.974740	-7.788098	6.085309	-3.972973	55.805528	14.212271	-20.867891	133.527168	47.092241	23.064195	-11.488904	10.532987	-9.719959	-16.056259	-0.093796	-9.143279	2.317717	53.324135	48.397765	-5.857388	118.563926	32.320935	-6.720852	-14.533107	
3.3700	4.128753	-1.917378	11.388259	-0.111960	1.046184	0.004207	10.217519	-12.633865	21.061151	-7.803607	6.344037	-4.050874	55.929298	14.283416	-20.831522	133.302129	47.302404	23.308346	-12.525202	10.528767	-9.628926	-16.056464	-0.163984	-9.113665	2.350447	53.257825	48.571599	-6.046581	118.485573	32.435636	-6.807905	-14.591140	
3.3800	4.087948	-1.833415	11.359311	-0.112015	1.046362	0.004172	10.151111	-12.549505	21.087533	-7.822732	6.592968	-4.100473	56.123748	14.495402	-20.572362	133.001543	47.708870	23.005557	-14.195507	10.495821	-9.546220	-16.018906	-0.211663	-9.051425	2.365840	53.158906	48.719962	-6.243320	118.391597	32.532398	-6.921382	-14.660336	
3.3900	4.055014	-1.754105	11.329804	-0.112091	1.046572	0.004151	10.059052	-12.463834	21.067796	-7.838361	6.834537	-4.131680	56.391090	14.811738	-20.139456	132.651065	48.235349	22.222472	-16.322112	10.439926	-9.472599	-15.951355	-0.238880	-8.962577	2.366573	53.032546	48.851912	-6.442067	118.285326	32.607400	-7.056244	-14.737255	
3.4000	4.035217	-1.665919	11.311712	-0.112181	1.046805	0.004158	9.956469	-12.370510	21.022296	-7.840881	7.059686	-4.156018	56.761864	15.207015	-19.572791	132.297771	48.704738	20.853273	-18.609349	10.371813	-9.417952	-15.867686	-0.243196	-8.861649	2.354737	52.886290	48.966322	-6.639529	118.167424	32.636776	-7.203419	-14.814358	
3.4100	4.015016	-1.545358	11.301998	-0.112262	1.047072	0.004178	9.866439	-12.246398	21.017573	-7.827510	7.318721	-4.211513	57.202756	15.562591	-19.098002	131.967231	48.941213	19.365036	-20.482959	10.316245	-9.378714	-15.801267	-0.239578	-8.774309	2.344253	52.744485	49.091355	-6.833672	118.038127	32.631510	-7.343803	-14.883653	
3.4200	3.981366	-1.396264	11.314645	-0.112356	1.047386	0.004201	9.794071	-12.083382	21.072486	-7.797202	7.629217	-4.309198	57.679691	15.875007	-18.757838	131.627309	48.964300	17.874911	-21.922001	10.276224	-9.347501	-15.754083	-0.238785	-8.709323	2.338372	52.607368	49.224646	-7.035681	117.892329	32.595982	-7.481735	-14.951177	
